<?xml version="1.0" encoding="utf-8"?>
<!-- Generator: Adobe Illustrator 23.0.2, SVG Export Plug-In . SVG Version: 6.00 Build 0)  -->
<svg version="1.1" id="Koala_1" xmlns="http://www.w3.org/2000/svg" xmlns:xlink="http://www.w3.org/1999/xlink" x="0px" y="0px"
	 viewBox="0 0 864 864" style="enable-background:new 0 0 864 864;" xml:space="preserve">
<style type="text/css">
	.st0{fill:#A1A0A0;}
	.st1{fill:#999696;}
	.st2{fill:#D2D2D2;}
	.st3{fill:#FFFFFF;}
</style>
<g>
	<g>
		<path class="st0" d="M822.14,114.02c-20.8-32.24-44.84-57.91-79.42-75.4C707.32,20.71,661.51,9,622.59,20.45
			c-49.31,14.5-85.73,48.03-105.61,96.34c-53.5-17.7-116.53-17.8-170.09-0.33c-19.91-48.13-56.28-81.54-105.47-96.01
			C202.49,9,156.68,20.71,121.28,38.62c-34.58,17.5-58.62,43.17-79.42,75.4c-18.17,28.16-32.55,60.42-31.15,93.9
			c0.29,6.88,1.34,14.02,5.2,19.73c3.87,5.73,10.6,9.54,17.51,9.44c6.91-0.1,13.71-4.31,16.48-10.64l1.44,1.01
			c-10.48,12.57-14.57,29.15-17.73,45.21c-2.87,14.54-4.68,31.34,4.96,42.6c10.02,11.7,28.91,11.88,42.5,4.62
			c13.59-7.26,23.11-20.14,32.17-32.6l-0.56,1.73c-1.67,7.6-2.98,15.29-3.93,23.02c-1.87,15.26-1.93,32.05,7.23,44.4
			c8.14,10.98,22.87,16.3,36.36,14.05c7.63-1.27,14.74-4.81,20.63-9.82c2.04,19.62,7.82,39.06,15.7,57.04
			c12.65,28.84,34.78,53.7,62.73,68.21c8.65,4.49,17.78,7.99,26.88,11.47c17,6.51,34.1,13.04,51.93,16.7
			c0.94,0.19,1.91,0.39,2.9,0.59c-37.29,39.72-67.12,92.29-67.81,150.23c-0.18,15.1,1.95,30.38,6.3,44.77
			c-0.38-0.07-0.77-0.15-1.15-0.19c-8.27-0.95-16.12,3.05-20.5,8.82c-4.39,5.77-5.78,13.03-5.9,20.19
			c-0.33,19.46,8.91,38.06,24.27,49.29c-0.77-4.74-1.54-9.48-2.3-14.23c5.65,10.08,14.46,18.25,24.82,23.01
			c-2.19-3.37-3.33-7.44-3.23-11.51c7.06,1.43,14.71-1.41,19.78-6.74c2.41-2.53,4.22-5.58,5.47-8.86
			c16.89,11.69,37.03,17.71,57.12,18.88c20.2,1.18,40.78-2.36,59.11-11.62c5.94-3,11.55-6.57,16.85-10.63
			c0.32,2.2,0.59,4.41,0.85,6.61c1.26,10.57,1.66,21.4,4.86,31.62c5.7,18.19,14.14,28.6,31.19,36.72
			c16.75,7.98,36.53,8.84,54.38,4.46c21.96-5.39,46.95-17.88,63.28-36.15c0.27,0.26,0.56,0.49,0.88,0.7
			c0.72,0.46,1.54,0.73,2.36,0.96c1.71,0.49,3.5,0.86,5.28,0.69c3.02-0.28,5.83-2.18,7.21-4.88c2.22-4.32,0.64-11.8-2.63-17.89
			c1.09-2.64,2.03-5.35,2.74-8.14c6.23-0.34,12.42-2.25,14.28-7.15c0.65-1.72,0.75-3.59,0.84-5.42c0.04-0.79,0.08-1.59-0.04-2.37
			c-0.45-2.97-2.98-5.11-5.34-6.97c-2.9-2.28-6.53-3.46-10.17-3.5c-0.4-1.01-0.85-1.99-1.35-2.95c0.27-0.24,0.54-0.48,0.87-0.77
			c4.47-3.95,4.85-11.45,1.29-16.24c-3.55-4.79-10.3-6.68-16.05-5.08c-2.9,0.8-5.7,2.55-8.03,4.76c-1.43-0.41-2.88-0.74-4.35-1
			c-0.13-1.3-0.31-2.6-0.65-3.86c-0.89-3.38-2.77-6.61-5.7-8.51c-2.93-1.9-7-2.22-9.88-0.23c-2.02,1.39-3.24,3.71-3.83,6.08
			c-0.44,1.8-0.57,3.68-0.36,5.52c0.07,0.61,0.18,1.21,0.31,1.81c-2.71,0.65-5.37,1.5-7.95,2.52c-6.49,2.57-12.53,6.17-19.03,8.7
			c-7.92,3.08-14.75,7.24-23.34,9.9c2.57-18.52,2.72-37.67-2.54-55.6c-2.97-10.14-7.93-19.89-14.49-28.26
			c1.69-7.02,3.01-14.14,3.93-21.27c2.01-15.51,2.42-31.19,1.97-46.83c21.08,3.45,43.23,3.45,63.63,1.98
			c6.64-0.48,13.23-1.47,19.81-2.47c4.73-0.71,9.46-1.43,14.14-2.35c17.98-3.56,35.32-10.3,50.98-19.81
			c12.05-7.32,23.24-16.44,31.58-27.75c3.79,5.52,13.38,6.92,18.38,2.15c4.97-4.74,4.4-12.66,1.67-18.84
			c-1.78-4.05-4.34-7.78-7.49-11c0.09-0.43,0.16-0.87,0.24-1.3c9.12,2.94,23.49-1.83,24.31-10.96c0.38-4.23-1.6-8.44-4.56-11.64
			c-5.75-6.23-14.22-8.43-22.39-7.01c-0.15-0.36-0.27-0.72-0.43-1.07c4.76-3.31,7.9-7.89,9.1-13.15c1.94-8.5-7.47-16.5-16.67-16.42
			c-5.82,0.06-11.31,2.35-15.8,5.88c-1.08-0.45-2.19-0.84-3.32-1.19c0.72-6.3-1.75-13.04-6.81-16.92c-2.24-1.72-5.02-2.87-7.8-2.95
			c7.59-9.65,13.98-20.27,18.9-31.51c8.01-18.26,13.84-38.02,15.79-57.96c6.09,5.5,13.58,9.4,21.67,10.75
			c13.48,2.25,28.21-3.07,36.36-14.05c9.16-12.35,9.1-29.14,7.23-44.4c-0.95-7.73-2.26-15.41-3.93-23.02l-0.56-1.73
			c9.06,12.46,18.59,25.34,32.17,32.6c13.59,7.26,32.48,7.08,42.5-4.62c9.64-11.26,7.82-28.06,4.96-42.6
			c-3.17-16.06-7.26-32.64-17.74-45.21l1.44-1.01c2.76,6.33,9.57,10.55,16.48,10.64c6.91,0.1,13.64-3.72,17.51-9.44
			c3.85-5.71,4.91-12.84,5.2-19.73C854.68,174.44,840.31,142.18,822.14,114.02z M633.38,471.48c2.88-2.34,5.67-4.79,8.36-7.35
			c0.18,1.66,0.42,3.31,0.74,4.95C639.42,469.76,636.38,470.58,633.38,471.48z"/>
	</g>
</g>
<path class="st1" d="M270.43,709.46c0.38,0.04,0.77,0.13,1.15,0.19c-4.35-14.39-6.48-29.68-6.3-44.77
	c0.69-57.93,30.52-110.51,67.81-150.23c14.31,2.91,33.21,6.52,47.1,7.48c37.02,2.55,50.7,3.1,98.78,1.34
	c0.34-0.03,0.72-0.08,1.08-0.12c3.21-0.72,6.47-1.5,9.78-2.34c32.49-8.29,68.93-22.06,86.15-28.49c7.73-2.89,15.35-6.06,23.04-9.05
	c9.7-3.77,19.52-7.26,29.43-10.45c1.63-0.53,3.28-1.04,4.94-1.54c3-0.9,6.04-1.72,9.1-2.41c8.67-1.93,17.47-2.69,25.98-0.46
	c0.5,0.13,0.98,0.3,1.47,0.45c1.13,0.35,2.23,0.74,3.32,1.19c10.44,4.32,18.79,13.2,23.37,23.68c0.15,0.35,0.28,0.71,0.43,1.07
	c1,2.44,1.81,4.94,2.38,7.5c1.63,7.27,1.59,14.79,0.25,22.11c-0.08,0.43-0.15,0.87-0.24,1.3c-1.64,8.03-4.84,15.8-9.2,22.75
	c-1.06,1.69-2.18,3.34-3.36,4.94c-8.34,11.32-19.53,20.43-31.58,27.75c-15.66,9.52-33.01,16.26-50.98,19.82
	c-4.69,0.93-9.42,1.64-14.14,2.35c-6.58,0.99-13.17,1.99-19.81,2.47c-20.4,1.47-42.55,1.47-63.63-1.98
	c-0.57-0.09-1.13-0.18-1.69-0.28c-11.36-1.97-22.36-4.97-32.59-9.32c-2.01,17.91-5.4,35.64-10.11,52.95
	c15.47,2.97,28.67,12.27,38.39,24.62c0.04,0.05,0.08,0.1,0.11,0.14c6.56,8.37,11.52,18.13,14.49,28.26
	c5.26,17.94,5.11,37.09,2.54,55.61c8.59-2.66,15.42-6.83,23.34-9.9c6.5-2.53,12.55-6.13,19.03-8.7c2.58-1.02,5.24-1.87,7.95-2.52
	c6.6-1.59,13.48-1.97,20.1-0.81c1.46,0.26,2.91,0.58,4.35,1c0.21,0.06,0.42,0.09,0.63,0.16c8.95,2.74,16.98,8.96,21.29,17.18
	c0.5,0.96,0.96,1.94,1.35,2.95c0.29,0.73,0.55,1.48,0.78,2.24c1.56,5.22,1.66,10.79,0.97,16.19c-0.3,2.38-0.75,4.7-1.33,6.98
	c-0.71,2.79-1.65,5.5-2.74,8.14c-3.08,7.43-7.59,14.25-13.1,20.42c-16.32,18.28-41.31,30.77-63.28,36.15
	c-17.86,4.38-37.63,3.52-54.38-4.46c-17.05-8.12-25.49-18.52-31.19-36.72c-3.2-10.22-3.6-21.05-4.86-31.62
	c-0.26-2.2-0.53-4.41-0.85-6.61c-5.3,4.05-10.91,7.63-16.85,10.63c-18.34,9.26-38.92,12.8-59.11,11.62
	c-20.09-1.18-40.23-7.19-57.12-18.88c-1.25,3.28-3.07,6.33-5.47,8.86c-5.07,5.33-12.72,8.17-19.78,6.74
	c-0.1,4.07,1.05,8.15,3.23,11.52c-10.37-4.76-19.17-12.92-24.82-23.01c0.77,4.74,1.54,9.48,2.3,14.23
	c-15.36-11.23-24.6-29.83-24.27-49.29c0.12-7.15,1.51-14.42,5.9-20.19C254.32,712.51,262.16,708.5,270.43,709.46z"/>
<path class="st2" d="M621.41,46.06c25.52-6.45,48.12-3.08,73.81,2.64c46.74,10.4,92.83,55.89,113.24,98.19
	c5.49,11.37,11.88,29.33,10.19,42.18c-2.14,16.3-25.15,21.33-39.06,8.96c6.36,8.64,9.9,18.93,10.95,29.37
	c0.89,8.9,0.8,18.18-2.72,26.4c-3.52,8.22-11.09,15.18-20.01,15.8c-18.49,1.28-34.18-19.94-44.72-32.26
	c6.12,16.96,8.38,35.3,6.57,53.23c-1.09,10.83-4.89,23.05-14.97,27.17c-4.23,1.73-8.93,1.68-13.45,0.73
	c2.65-0.75,5.1-2.13,6.98-4.17c5.23-5.66,5.59-14.6,2.71-21.75c-2.88-7.15-8.44-12.87-14.15-18.05
	c-7.81-7.08-16.4-13.67-25.98-17.88c-1.1-2.24-2.26-4.51-3.45-6.78c5.38-2.71,10.77-5.41,16.15-8.12c3.17-1.6,6.65-3.54,7.69-6.93
	c0.86-2.81-0.23-5.82-1.57-8.44c-10.33-20.17-33.89-28.49-57.09-30.57c-1.24-1.5-2.51-2.98-3.79-4.45
	c7.35-3.83,14.33-8.39,20.76-13.61c2.51-2.04,5.05-4.32,6.13-7.37c2.61-7.37-4.25-14.6-10.96-18.61
	c-20.62-12.32-46.8-14.66-69.39-6.62c-0.97-0.63-1.92-1.26-2.9-1.87c3.35-3.36,7.3-6.22,10.64-9.62c4.75-4.84,8.38-12.08,5.68-18.3
	c-3.73-8.59-15.91-8.74-24.88-6.06c-7.84,2.34-15.34,5.8-22.26,10.18C558.94,86.08,588.16,54.47,621.41,46.06z M55.1,146.89
	c-5.49,11.37-11.88,29.33-10.19,42.18c2.14,16.3,25.15,21.33,39.06,8.96c-6.36,8.64-9.9,18.93-10.95,29.37
	c-0.89,8.9-0.8,18.18,2.72,26.4c3.52,8.22,11.09,15.18,20.01,15.8c18.49,1.28,34.18-19.94,44.72-32.26
	c-6.12,16.96-8.38,35.3-6.57,53.23c1.09,10.83,4.89,23.05,14.97,27.17c3.17,1.29,6.6,1.57,10.02,1.24c-3.4-0.98-6.44-2.57-8.39-4.68
	c-5.23-5.66-5.59-14.6-2.71-21.75c2.88-7.15,8.44-12.87,14.15-18.05c9.18-8.33,19.45-15.98,31.13-19.87
	c0.52-1.04,1.05-2.09,1.6-3.14c-6.48-3.26-12.96-6.52-19.44-9.78c-3.17-1.6-6.65-3.54-7.69-6.93c-0.86-2.81,0.23-5.82,1.57-8.44
	c10.99-21.46,36.94-29.5,61.51-30.89c0.74-0.9,1.52-1.78,2.28-2.67c-8.43-4.11-16.39-9.16-23.67-15.07
	c-2.51-2.04-5.05-4.32-6.13-7.37c-2.61-7.37,4.25-14.6,10.96-18.61c21.43-12.81,48.88-14.86,72.05-5.65
	c0.6-0.39,1.21-0.78,1.81-1.17c-3.63-4.12-8.32-7.34-12.2-11.3c-4.75-4.84-8.38-12.08-5.68-18.3c3.73-8.59,15.91-8.74,24.88-6.06
	c10.79,3.22,20.92,8.56,29.76,15.53c-16.96-35.26-47.5-69.87-82.52-78.72c-25.52-6.45-48.12-3.08-73.81,2.64
	C121.61,59.1,75.51,104.59,55.1,146.89z M472.45,594.41c-2.01,17.91-5.4,35.64-10.11,52.95c15.47,2.97,28.67,12.27,38.39,24.62
	c0.04,0.05,0.08,0.1,0.11,0.14c1.69-7.02,3.01-14.14,3.93-21.27c2.01-15.51,2.42-31.19,1.97-46.83c-0.57-0.09-1.13-0.18-1.69-0.28
	C493.68,601.77,482.68,598.76,472.45,594.41z"/>
<g>
	<g>
		<path d="M432.52,251.07c-0.36,0-0.72,0.02-1.08,0.03c-0.36,0-0.72-0.03-1.08-0.03H432.52z M364.81,332.09
			c-1.42,17.22,0.03,35.01,7.07,50.79c7.04,15.77,20.22,29.32,36.8,34.16c5.24,1.53,11.8,2.29,18.64,2.18
			c-0.16,6.7-0.93,14.27,0.19,21c-0.94,0-1.87-0.01-2.8-0.02c-7.83-0.13-15.72-1.11-23.12-3.76c-7.76-2.77-13.45-7.52-19.41-13.01
			c-1.23-1.13-3.28,0.33-2.36,1.82c9.03,14.58,29.06,18.67,44.89,18.92c15.84,0.25,39.73-0.62,48.81-16
			c0.71-1.2-0.95-2.47-1.92-1.48c-10.49,10.69-25.68,13.19-40.24,13.5c0.61-6.84-0.26-14.12-0.18-20.97h4.09
			c6.95,0.14,13.62-0.62,18.93-2.18c16.58-4.84,29.76-18.39,36.8-34.16c7.05-15.77,8.49-33.57,7.07-50.79
			c-1.59-19.32-6.91-38.79-18.43-54.38c-11.31-15.3-29.22-26.37-48.2-26.61c-18.99,0.24-36.89,11.31-48.2,26.61
			C371.71,293.3,366.4,312.77,364.81,332.09z M689.05,464.37c-5.82,0.06-11.31,2.35-15.8,5.88c10.44,4.32,18.79,13.2,23.37,23.68
			c4.76-3.31,7.9-7.89,9.1-13.15C707.66,472.29,698.25,464.28,689.05,464.37z M690.24,548.67c-1.06,1.69-2.18,3.34-3.36,4.94
			c3.79,5.52,13.38,6.92,18.38,2.15c4.97-4.74,4.4-12.66,1.67-18.84c-1.78-4.05-4.34-7.78-7.49-11
			C697.8,533.95,694.59,541.73,690.24,548.67z M723.99,513.66c0.38-4.23-1.6-8.44-4.56-11.64c-5.75-6.23-14.22-8.43-22.39-7.01
			c1,2.44,1.81,4.94,2.38,7.5c1.63,7.27,1.59,14.79,0.25,22.11C708.81,527.56,723.17,522.79,723.99,513.66z M641.64,459.76
			c-0.19,1.03-0.13,2.09-0.03,3.14c0.04,0.41,0.09,0.82,0.14,1.23c0.18,1.66,0.42,3.31,0.74,4.95c8.67-1.93,17.47-2.69,25.98-0.46
			c0.5,0.13,0.98,0.3,1.47,0.45c0.72-6.3-1.75-13.04-6.81-16.92c-2.24-1.72-5.02-2.87-7.8-2.95c-1.1-0.03-2.19,0.09-3.25,0.44
			c-2.09,0.69-3.86,2.1-5.55,3.52C644.38,454.94,642.16,457.01,641.64,459.76z M568.24,727.54c-0.44,1.8-0.57,3.68-0.36,5.52
			c0.07,0.61,0.18,1.21,0.31,1.81c6.6-1.59,13.48-1.97,20.1-0.81c-0.13-1.3-0.31-2.6-0.65-3.86c-0.89-3.38-2.77-6.61-5.7-8.51
			c-2.93-1.9-7-2.22-9.88-0.23C570.05,722.84,568.83,725.16,568.24,727.54z M616.33,780.76c6.23-0.34,12.42-2.25,14.28-7.15
			c0.65-1.72,0.75-3.59,0.84-5.42c0.04-0.79,0.08-1.59-0.04-2.37c-0.45-2.97-2.98-5.11-5.34-6.96c-2.9-2.28-6.53-3.46-10.17-3.5
			c0.29,0.73,0.55,1.48,0.78,2.24c1.56,5.22,1.66,10.79,0.97,16.19C617.36,776.15,616.91,778.48,616.33,780.76z M613.59,788.9
			c-3.08,7.43-7.59,14.25-13.1,20.42c0.27,0.26,0.56,0.49,0.88,0.7c0.72,0.46,1.54,0.73,2.36,0.96c1.71,0.49,3.5,0.86,5.28,0.69
			c3.02-0.28,5.83-2.18,7.21-4.88C618.44,802.47,616.87,794.99,613.59,788.9z M600.67,730.3c-2.9,0.8-5.7,2.55-8.03,4.76
			c0.21,0.06,0.42,0.09,0.63,0.16c8.95,2.74,16.98,8.96,21.29,17.18c0.27-0.24,0.54-0.48,0.87-0.77c4.47-3.95,4.85-11.45,1.29-16.24
			C613.16,730.59,606.41,728.71,600.67,730.3z M258.29,266.63c4.58-2.34,9.96-3.87,15.38-3.63c6.16,0.27,11.89,2.82,16.3,6.24
			c12.82,9.97,15.8,27.42,17.15,41.06c1.53,15.43-0.92,31.12-7.33,45.76c-6.89,15.74-31.7,23-47.62,9.83
			c-3.49-2.89-6.33-6.35-8.62-10.18c-8.99-15.06-9.46-35.88-7.07-50.37C238.63,292.3,243.53,274.16,258.29,266.63z M572.92,269.24
			c4.4-3.42,10.14-5.97,16.3-6.24c5.42-0.24,10.81,1.29,15.38,3.63c14.75,7.54,19.65,25.68,21.8,38.71
			c2.39,14.49,1.92,35.31-7.07,50.37c-2.29,3.84-5.13,7.3-8.62,10.18c-15.91,13.17-40.73,5.91-47.62-9.83
			c-6.4-14.64-8.85-30.33-7.32-45.76C557.11,296.66,560.09,279.21,572.92,269.24z"/>
	</g>
</g>
<path class="st3" d="M289.31,284.29c11.12,3.35,11.64,22.71,10.83,31.72c-0.33,3.65-1.71,8.01-5.3,8.74c-2.96,0.6-5.7-1.7-7.6-4.06
	C282,314.19,270.2,278.54,289.31,284.29z M565.59,316.01c0.33,3.65,1.71,8.01,5.3,8.74c2.96,0.6,5.7-1.7,7.59-4.06
	c5.23-6.51,17.04-42.15-2.07-36.4C565.3,287.64,564.79,307,565.59,316.01z"/>
</svg>
